<svg width="171" height="16" viewBox="0 0 171 16" fill="none" xmlns="http://www.w3.org/2000/svg">
<path d="M5.9522 12.3038C5.09886 12.3038 4.30953 12.1491 3.5842 11.8398C2.86953 11.5305 2.2402 11.0985 1.6962 10.5438C1.16286 9.98915 0.746862 9.33848 0.448195 8.59182C0.149529 7.84515 0.000195324 7.02915 0.000195324 6.14382C0.000195324 5.25848 0.144195 4.44248 0.432195 3.69582C0.730862 2.93848 1.14686 2.28782 1.6802 1.74382C2.2242 1.18915 2.85886 0.762482 3.5842 0.463816C4.30953 0.154483 5.09886 -0.000184059 5.9522 -0.000184059C6.80553 -0.000184059 7.5682 0.143816 8.2402 0.431816C8.92286 0.719816 9.49886 1.10382 9.9682 1.58382C10.4375 2.05315 10.7735 2.57048 10.9762 3.13582L9.0242 4.04782C8.8002 3.45048 8.42153 2.95982 7.8882 2.57582C7.35486 2.18115 6.70953 1.98382 5.9522 1.98382C5.20553 1.98382 4.5442 2.15982 3.9682 2.51182C3.40286 2.86382 2.9602 3.34915 2.6402 3.96782C2.33086 4.58648 2.1762 5.31182 2.1762 6.14382C2.1762 6.97582 2.33086 7.70648 2.6402 8.33582C2.9602 8.95448 3.40286 9.43982 3.9682 9.79182C4.5442 10.1438 5.20553 10.3198 5.9522 10.3198C6.70953 10.3198 7.35486 10.1278 7.8882 9.74382C8.42153 9.34915 8.8002 8.85315 9.0242 8.25582L10.9762 9.16782C10.7735 9.73315 10.4375 10.2558 9.9682 10.7358C9.49886 11.2051 8.92286 11.5838 8.2402 11.8718C7.5682 12.1598 6.80553 12.3038 5.9522 12.3038ZM16.6666 12.3038C15.8132 12.3038 15.0346 12.1065 14.3306 11.7118C13.6372 11.3171 13.0826 10.7785 12.6666 10.0958C12.2612 9.41315 12.0586 8.63448 12.0586 7.75982C12.0586 6.88515 12.2612 6.10648 12.6666 5.42382C13.0826 4.74115 13.6372 4.20248 14.3306 3.80782C15.0239 3.41315 15.8026 3.21582 16.6666 3.21582C17.5199 3.21582 18.2932 3.41315 18.9866 3.80782C19.6799 4.20248 20.2292 4.74115 20.6346 5.42382C21.0506 6.09582 21.2586 6.87448 21.2586 7.75982C21.2586 8.63448 21.0506 9.41315 20.6346 10.0958C20.2186 10.7785 19.6639 11.3171 18.9706 11.7118C18.2772 12.1065 17.5092 12.3038 16.6666 12.3038ZM16.6666 10.3838C17.1359 10.3838 17.5466 10.2718 17.8986 10.0478C18.2612 9.82382 18.5439 9.51448 18.7466 9.11982C18.9599 8.71448 19.0666 8.26115 19.0666 7.75982C19.0666 7.24782 18.9599 6.79982 18.7466 6.41582C18.5439 6.02115 18.2612 5.71182 17.8986 5.48782C17.5466 5.25315 17.1359 5.13582 16.6666 5.13582C16.1866 5.13582 15.7652 5.25315 15.4026 5.48782C15.0399 5.71182 14.7519 6.02115 14.5386 6.41582C14.3359 6.79982 14.2346 7.24782 14.2346 7.75982C14.2346 8.26115 14.3359 8.71448 14.5386 9.11982C14.7519 9.51448 15.0399 9.82382 15.4026 10.0478C15.7652 10.2718 16.1866 10.3838 16.6666 10.3838ZM22.8481 12.1118V3.40782H24.8161V5.11982L24.6561 4.81582C24.8587 4.29315 25.1894 3.89848 25.6481 3.63182C26.1174 3.35448 26.6614 3.21582 27.2801 3.21582C27.9201 3.21582 28.4854 3.35448 28.9761 3.63182C29.4774 3.90915 29.8667 4.29848 30.1441 4.79982C30.4214 5.29048 30.5601 5.86115 30.5601 6.51182V12.1118H28.4641V7.00782C28.4641 6.62382 28.3894 6.29315 28.2401 6.01582C28.0907 5.73848 27.8827 5.52515 27.6161 5.37582C27.3601 5.21582 27.0561 5.13582 26.7041 5.13582C26.3627 5.13582 26.0587 5.21582 25.7921 5.37582C25.5254 5.52515 25.3174 5.73848 25.1681 6.01582C25.0187 6.29315 24.9441 6.62382 24.9441 7.00782V12.1118H22.8481ZM32.3324 12.1118V3.40782H34.3004V5.11982L34.1404 4.81582C34.3431 4.29315 34.6738 3.89848 35.1324 3.63182C35.6018 3.35448 36.1458 3.21582 36.7644 3.21582C37.4044 3.21582 37.9698 3.35448 38.4604 3.63182C38.9618 3.90915 39.3511 4.29848 39.6284 4.79982C39.9058 5.29048 40.0444 5.86115 40.0444 6.51182V12.1118H37.9484V7.00782C37.9484 6.62382 37.8738 6.29315 37.7244 6.01582C37.5751 5.73848 37.3671 5.52515 37.1004 5.37582C36.8444 5.21582 36.5404 5.13582 36.1884 5.13582C35.8471 5.13582 35.5431 5.21582 35.2764 5.37582C35.0098 5.52515 34.8018 5.73848 34.6524 6.01582C34.5031 6.29315 34.4284 6.62382 34.4284 7.00782V12.1118H32.3324ZM45.9448 12.3038C45.0488 12.3038 44.2648 12.1011 43.5928 11.6958C42.9208 11.2905 42.3982 10.7411 42.0248 10.0478C41.6515 9.35448 41.4648 8.58648 41.4648 7.74382C41.4648 6.86915 41.6515 6.09582 42.0248 5.42382C42.4088 4.74115 42.9262 4.20248 43.5768 3.80782C44.2382 3.41315 44.9742 3.21582 45.7848 3.21582C46.4675 3.21582 47.0648 3.32782 47.5768 3.55182C48.0995 3.77582 48.5422 4.08515 48.9048 4.47982C49.2675 4.87448 49.5448 5.32782 49.7368 5.83982C49.9288 6.34115 50.0248 6.88515 50.0248 7.47182C50.0248 7.62115 50.0142 7.77582 49.9928 7.93582C49.9822 8.09582 49.9555 8.23448 49.9128 8.35182H43.1928V6.75182H48.7288L47.7368 7.50382C47.8328 7.01315 47.8062 6.57582 47.6568 6.19182C47.5182 5.80782 47.2835 5.50382 46.9528 5.27982C46.6328 5.05582 46.2435 4.94382 45.7848 4.94382C45.3475 4.94382 44.9582 5.05582 44.6168 5.27982C44.2755 5.49315 44.0142 5.81315 43.8328 6.23982C43.6622 6.65582 43.5982 7.16248 43.6408 7.75982C43.5982 8.29315 43.6675 8.76782 43.8488 9.18382C44.0408 9.58915 44.3182 9.90382 44.6808 10.1278C45.0542 10.3518 45.4808 10.4638 45.9608 10.4638C46.4408 10.4638 46.8462 10.3625 47.1768 10.1598C47.5182 9.95715 47.7848 9.68515 47.9768 9.34382L49.6728 10.1758C49.5022 10.5918 49.2355 10.9598 48.8728 11.2798C48.5102 11.5998 48.0782 11.8505 47.5768 12.0318C47.0862 12.2131 46.5422 12.3038 45.9448 12.3038ZM55.8057 12.3038C54.9417 12.3038 54.163 12.1065 53.4697 11.7118C52.787 11.3065 52.2484 10.7625 51.8537 10.0798C51.459 9.38648 51.2617 8.60782 51.2617 7.74382C51.2617 6.87982 51.459 6.10648 51.8537 5.42382C52.2484 4.74115 52.787 4.20248 53.4697 3.80782C54.163 3.41315 54.9417 3.21582 55.8057 3.21582C56.4244 3.21582 57.0004 3.32782 57.5337 3.55182C58.067 3.76515 58.5257 4.06382 58.9097 4.44782C59.3044 4.82115 59.587 5.26915 59.7577 5.79182L57.9177 6.59182C57.7577 6.15448 57.4857 5.80248 57.1017 5.53582C56.7284 5.26915 56.2964 5.13582 55.8057 5.13582C55.347 5.13582 54.9364 5.24782 54.5737 5.47182C54.2217 5.69582 53.9444 6.00515 53.7417 6.39982C53.539 6.79448 53.4377 7.24782 53.4377 7.75982C53.4377 8.27182 53.539 8.72515 53.7417 9.11982C53.9444 9.51448 54.2217 9.82382 54.5737 10.0478C54.9364 10.2718 55.347 10.3838 55.8057 10.3838C56.307 10.3838 56.7444 10.2505 57.1177 9.98382C57.491 9.71715 57.7577 9.35982 57.9177 8.91182L59.7577 9.74382C59.587 10.2345 59.3097 10.6771 58.9257 11.0718C58.5417 11.4558 58.083 11.7598 57.5497 11.9838C57.0164 12.1971 56.435 12.3038 55.8057 12.3038ZM65.3161 12.2078C64.3347 12.2078 63.5721 11.9411 63.0281 11.4078C62.4947 10.8638 62.2281 10.1011 62.2281 9.11982V5.27982H60.7241V3.40782H60.8841C61.3107 3.40782 61.6414 3.29582 61.8761 3.07182C62.1107 2.84782 62.2281 2.52248 62.2281 2.09582V1.42382H64.3241V3.40782H66.3241V5.27982H64.3241V9.00782C64.3241 9.29582 64.3721 9.54115 64.4681 9.74382C64.5747 9.94648 64.7347 10.1011 64.9481 10.2078C65.1721 10.3145 65.4547 10.3678 65.7961 10.3678C65.8707 10.3678 65.9561 10.3625 66.0521 10.3518C66.1587 10.3411 66.2601 10.3305 66.3561 10.3198V12.1118C66.2067 12.1331 66.0361 12.1545 65.8441 12.1758C65.6521 12.1971 65.4761 12.2078 65.3161 12.2078ZM67.9574 12.1118V3.40782H70.0534V12.1118H67.9574ZM67.9574 2.43182V0.191815H70.0534V2.43182H67.9574ZM71.9887 12.1118V3.40782H73.9567V5.11982L73.7967 4.81582C73.9994 4.29315 74.33 3.89848 74.7887 3.63182C75.258 3.35448 75.802 3.21582 76.4207 3.21582C77.0607 3.21582 77.626 3.35448 78.1167 3.63182C78.618 3.90915 79.0074 4.29848 79.2847 4.79982C79.562 5.29048 79.7007 5.86115 79.7007 6.51182V12.1118H77.6047V7.00782C77.6047 6.62382 77.53 6.29315 77.3807 6.01582C77.2314 5.73848 77.0234 5.52515 76.7567 5.37582C76.5007 5.21582 76.1967 5.13582 75.8447 5.13582C75.5034 5.13582 75.1994 5.21582 74.9327 5.37582C74.666 5.52515 74.458 5.73848 74.3087 6.01582C74.1594 6.29315 74.0847 6.62382 74.0847 7.00782V12.1118H71.9887ZM85.6971 15.6318C85.0464 15.6318 84.4437 15.5251 83.8891 15.3118C83.3344 15.0985 82.8544 14.7998 82.4491 14.4158C82.0544 14.0425 81.7664 13.5998 81.5851 13.0878L83.5371 12.3518C83.6651 12.7571 83.9157 13.0825 84.2891 13.3278C84.6731 13.5838 85.1424 13.7118 85.6971 13.7118C86.1237 13.7118 86.4971 13.6318 86.8171 13.4718C87.1477 13.3118 87.4037 13.0771 87.5851 12.7678C87.7664 12.4691 87.8571 12.1065 87.8571 11.6798V9.69582L88.2571 10.1758C87.9584 10.6985 87.5584 11.0931 87.0571 11.3598C86.5557 11.6265 85.9851 11.7598 85.3451 11.7598C84.5344 11.7598 83.8091 11.5731 83.1691 11.1998C82.5291 10.8265 82.0277 10.3145 81.6651 9.66382C81.3024 9.01315 81.1211 8.28248 81.1211 7.47182C81.1211 6.65048 81.3024 5.91982 81.6651 5.27982C82.0277 4.63982 82.5237 4.13848 83.1531 3.77582C83.7824 3.40248 84.4971 3.21582 85.2971 3.21582C85.9477 3.21582 86.5184 3.35448 87.0091 3.63182C87.5104 3.89848 87.9264 4.28782 88.2571 4.79982L87.9691 5.32782V3.40782H89.9531V11.6798C89.9531 12.4371 89.7664 13.1145 89.3931 13.7118C89.0304 14.3091 88.5291 14.7785 87.8891 15.1198C87.2597 15.4611 86.5291 15.6318 85.6971 15.6318ZM85.6011 9.82382C86.0491 9.82382 86.4384 9.72782 86.7691 9.53582C87.1104 9.33315 87.3771 9.05582 87.5691 8.70382C87.7611 8.35182 87.8571 7.94648 87.8571 7.48782C87.8571 7.03982 87.7557 6.63982 87.5531 6.28782C87.3611 5.92515 87.0944 5.64248 86.7531 5.43982C86.4224 5.23715 86.0384 5.13582 85.6011 5.13582C85.1637 5.13582 84.7691 5.23715 84.4171 5.43982C84.0651 5.64248 83.7877 5.92515 83.5851 6.28782C83.3931 6.63982 83.2971 7.03982 83.2971 7.48782C83.2971 7.93582 83.3931 8.33582 83.5851 8.68782C83.7877 9.03982 84.0597 9.31715 84.4011 9.51982C84.7531 9.72248 85.1531 9.82382 85.6011 9.82382ZM97.0423 12.1118V2.11182H93.9543V0.191815H102.274V2.11182H99.2343V12.1118H97.0423ZM103.426 12.1118V-0.000184059H105.522V5.11982L105.234 4.81582C105.437 4.29315 105.768 3.89848 106.226 3.63182C106.696 3.35448 107.24 3.21582 107.858 3.21582C108.498 3.21582 109.064 3.35448 109.554 3.63182C110.056 3.90915 110.445 4.29848 110.722 4.79982C111 5.29048 111.138 5.86115 111.138 6.51182V12.1118H109.042V7.00782C109.042 6.62382 108.968 6.29315 108.818 6.01582C108.669 5.73848 108.461 5.52515 108.194 5.37582C107.938 5.21582 107.634 5.13582 107.282 5.13582C106.941 5.13582 106.637 5.21582 106.37 5.37582C106.104 5.52515 105.896 5.73848 105.746 6.01582C105.597 6.29315 105.522 6.62382 105.522 7.00782V12.1118H103.426ZM117.039 12.3038C116.143 12.3038 115.359 12.1011 114.687 11.6958C114.015 11.2905 113.492 10.7411 113.119 10.0478C112.745 9.35448 112.559 8.58648 112.559 7.74382C112.559 6.86915 112.745 6.09582 113.119 5.42382C113.503 4.74115 114.02 4.20248 114.671 3.80782C115.332 3.41315 116.068 3.21582 116.879 3.21582C117.561 3.21582 118.159 3.32782 118.671 3.55182C119.193 3.77582 119.636 4.08515 119.999 4.47982C120.361 4.87448 120.639 5.32782 120.831 5.83982C121.023 6.34115 121.119 6.88515 121.119 7.47182C121.119 7.62115 121.108 7.77582 121.087 7.93582C121.076 8.09582 121.049 8.23448 121.007 8.35182H114.287V6.75182H119.823L118.831 7.50382C118.927 7.01315 118.9 6.57582 118.751 6.19182C118.612 5.80782 118.377 5.50382 118.047 5.27982C117.727 5.05582 117.337 4.94382 116.879 4.94382C116.441 4.94382 116.052 5.05582 115.711 5.27982C115.369 5.49315 115.108 5.81315 114.927 6.23982C114.756 6.65582 114.692 7.16248 114.735 7.75982C114.692 8.29315 114.761 8.76782 114.943 9.18382C115.135 9.58915 115.412 9.90382 115.775 10.1278C116.148 10.3518 116.575 10.4638 117.055 10.4638C117.535 10.4638 117.94 10.3625 118.271 10.1598C118.612 9.95715 118.879 9.68515 119.071 9.34382L120.767 10.1758C120.596 10.5918 120.329 10.9598 119.967 11.2798C119.604 11.5998 119.172 11.8505 118.671 12.0318C118.18 12.2131 117.636 12.3038 117.039 12.3038ZM127.951 12.1118L124.751 0.191815H127.087L129.599 10.3518H128.991L131.615 0.191815H133.871L136.479 10.3518H135.871L138.383 0.191815H140.719L137.519 12.1118H135.023L132.383 2.22382H133.087L130.447 12.1118H127.951ZM145.604 12.3038C144.751 12.3038 143.972 12.1065 143.268 11.7118C142.575 11.3171 142.02 10.7785 141.604 10.0958C141.199 9.41315 140.996 8.63448 140.996 7.75982C140.996 6.88515 141.199 6.10648 141.604 5.42382C142.02 4.74115 142.575 4.20248 143.268 3.80782C143.961 3.41315 144.74 3.21582 145.604 3.21582C146.457 3.21582 147.231 3.41315 147.924 3.80782C148.617 4.20248 149.167 4.74115 149.572 5.42382C149.988 6.09582 150.196 6.87448 150.196 7.75982C150.196 8.63448 149.988 9.41315 149.572 10.0958C149.156 10.7785 148.601 11.3171 147.908 11.7118C147.215 12.1065 146.447 12.3038 145.604 12.3038ZM145.604 10.3838C146.073 10.3838 146.484 10.2718 146.836 10.0478C147.199 9.82382 147.481 9.51448 147.684 9.11982C147.897 8.71448 148.004 8.26115 148.004 7.75982C148.004 7.24782 147.897 6.79982 147.684 6.41582C147.481 6.02115 147.199 5.71182 146.836 5.48782C146.484 5.25315 146.073 5.13582 145.604 5.13582C145.124 5.13582 144.703 5.25315 144.34 5.48782C143.977 5.71182 143.689 6.02115 143.476 6.41582C143.273 6.79982 143.172 7.24782 143.172 7.75982C143.172 8.26115 143.273 8.71448 143.476 9.11982C143.689 9.51448 143.977 9.82382 144.34 10.0478C144.703 10.2718 145.124 10.3838 145.604 10.3838ZM151.786 12.1118V3.40782H153.754V5.34382L153.594 5.05582C153.796 4.40515 154.111 3.95182 154.538 3.69582C154.975 3.43982 155.498 3.31182 156.106 3.31182H156.618V5.16782H155.866C155.268 5.16782 154.788 5.35448 154.426 5.72782C154.063 6.09048 153.882 6.60248 153.882 7.26382V12.1118H151.786ZM157.77 12.1118V-0.000184059H159.866V12.1118H157.77ZM165.849 12.3038C165.007 12.3038 164.255 12.1065 163.593 11.7118C162.932 11.3065 162.409 10.7571 162.025 10.0638C161.641 9.37048 161.449 8.60248 161.449 7.75982C161.449 6.90648 161.641 6.13848 162.025 5.45582C162.409 4.77315 162.932 4.22915 163.593 3.82382C164.265 3.41848 165.012 3.21582 165.833 3.21582C166.495 3.21582 167.081 3.34915 167.593 3.61582C168.116 3.87182 168.527 4.23448 168.825 4.70382L168.505 5.13582V-0.000184059H170.601V12.1118H168.617V10.4318L168.841 10.8478C168.543 11.3171 168.127 11.6798 167.593 11.9358C167.06 12.1811 166.479 12.3038 165.849 12.3038ZM166.073 10.3838C166.553 10.3838 166.975 10.2718 167.337 10.0478C167.7 9.82382 167.983 9.51448 168.185 9.11982C168.399 8.72515 168.505 8.27182 168.505 7.75982C168.505 7.25848 168.399 6.81048 168.185 6.41582C167.983 6.01048 167.7 5.69582 167.337 5.47182C166.975 5.24782 166.553 5.13582 166.073 5.13582C165.604 5.13582 165.183 5.25315 164.809 5.48782C164.436 5.71182 164.143 6.02115 163.929 6.41582C163.727 6.79982 163.625 7.24782 163.625 7.75982C163.625 8.27182 163.727 8.72515 163.929 9.11982C164.143 9.51448 164.436 9.82382 164.809 10.0478C165.183 10.2718 165.604 10.3838 166.073 10.3838Z" fill="white"/>
</svg>
